<?xml version="1.0" encoding="UTF-8"?>
<svg enable-background="new 0 0 383 375" viewBox="0 0 383 375" xmlns="http://www.w3.org/2000/svg">
 <defs>
  <linearGradient id="i" x2="0" y1="302.01" y2="145.59" gradientUnits="userSpaceOnUse">
   <stop stop-color="#656565" offset="0"/>
   <stop stop-color="#1b1b1b" offset=".618"/>
   <stop stop-color="#545454" offset=".6292"/>
   <stop stop-color="#3e3e3e" offset=".9831"/>
  </linearGradient>
  <linearGradient id="h" x2="0" y1="302.01" y2="145.59" gradientUnits="userSpaceOnUse">
   <stop stop-color="#0e0e0e" offset="0"/>
   <stop offset=".5"/>
   <stop stop-color="#010101" offset=".5213"/>
   <stop stop-color="#0b0b0b" offset=".7262"/>
   <stop stop-color="#0e0e0e" offset="1"/>
  </linearGradient>
  <linearGradient id="g" x2="0" y1="145.59" y2="302.01" gradientUnits="userSpaceOnUse">
   <stop stop-color="#fff" stop-opacity=".77" offset="0"/>
   <stop stop-color="#fff" stop-opacity=".65" offset=".2033"/>
   <stop stop-color="#fff" stop-opacity=".65" offset=".3448"/>
   <stop stop-color="#fff" stop-opacity=".65" offset=".3462"/>
   <stop stop-color="#fff" stop-opacity="0" offset=".511"/>
   <stop stop-color="#e1e1e1" stop-opacity=".0045" offset=".5247"/>
   <stop stop-color="#b8b8b8" stop-opacity=".0116" offset=".5464"/>
   <stop stop-color="#929292" stop-opacity=".0196" offset=".5708"/>
   <stop stop-color="#727272" stop-opacity=".0283" offset=".5974"/>
   <stop stop-color="#565656" stop-opacity=".0379" offset=".6268"/>
   <stop stop-color="#404040" stop-opacity=".0487" offset=".6599"/>
   <stop stop-color="#2f2f2f" stop-opacity=".0614" offset=".6986"/>
   <stop stop-color="#242424" stop-opacity=".0771" offset=".7465"/>
   <stop stop-color="#1d1d1d" stop-opacity=".099" offset=".8136"/>
   <stop stop-color="#1b1b1b" stop-opacity=".16" offset="1"/>
  </linearGradient>
  <linearGradient id="f" x2="0" y1="238" y2="162.18" gradientUnits="userSpaceOnUse">
   <stop stop-color="#f20915" offset="0"/>
   <stop stop-color="#f54d48" offset=".618"/>
   <stop stop-color="#f55049" offset=".6292"/>
   <stop stop-color="#f44846" offset=".9831"/>
  </linearGradient>
  <linearGradient id="e" x2="0" y1="162.18" y2="238" gradientUnits="userSpaceOnUse">
   <stop stop-color="#fff" stop-opacity=".77" offset="0"/>
   <stop stop-color="#fff" stop-opacity=".65" offset=".2033"/>
   <stop stop-color="#fff" stop-opacity=".65" offset=".3448"/>
   <stop stop-color="#fff" stop-opacity=".65" offset=".3462"/>
   <stop stop-color="#fff" stop-opacity="0" offset=".511"/>
   <stop stop-color="#fddcdd" stop-opacity=".0063" offset=".5304"/>
   <stop stop-color="#fbb8b9" stop-opacity=".0143" offset=".5548"/>
   <stop stop-color="#f99899" stop-opacity=".0234" offset=".5824"/>
   <stop stop-color="#f77c7e" stop-opacity=".0333" offset=".6128"/>
   <stop stop-color="#f66669" stop-opacity=".0446" offset=".6472"/>
   <stop stop-color="#f55558" stop-opacity=".0577" offset=".6874"/>
   <stop stop-color="#f44a4d" stop-opacity=".074" offset=".737"/>
   <stop stop-color="#f44346" stop-opacity=".0967" offset=".8067"/>
   <stop stop-color="#f44144" stop-opacity=".16" offset="1"/>
  </linearGradient>
  <linearGradient id="d" x2="0" y1="323.3" y2="140" gradientUnits="userSpaceOnUse">
   <stop stop-color="#f6e134" stop-opacity=".22" offset="0"/>
   <stop stop-color="#f0b044" offset=".5"/>
   <stop stop-color="#f2c43d" stop-opacity=".835" offset=".5948"/>
   <stop stop-color="#f4d438" stop-opacity=".6408" offset=".7064"/>
   <stop stop-color="#f6de35" stop-opacity=".422" offset=".8322"/>
   <stop stop-color="#f6e134" stop-opacity=".13" offset="1"/>
  </linearGradient>
  <linearGradient id="b" x2="0" y1="140" y2="323.3" gradientUnits="userSpaceOnUse">
   <stop stop-color="#fff" stop-opacity=".77" offset="0"/>
   <stop stop-color="#fff" stop-opacity="0" offset=".45"/>
   <stop stop-color="#fcf2df" stop-opacity=".0059" offset=".4702"/>
   <stop stop-color="#fae2bb" stop-opacity=".0139" offset=".4977"/>
   <stop stop-color="#f7d59b" stop-opacity=".0229" offset=".5288"/>
   <stop stop-color="#f5c97f" stop-opacity=".0329" offset=".5632"/>
   <stop stop-color="#f3c069" stop-opacity=".0442" offset=".602"/>
   <stop stop-color="#f2b958" stop-opacity=".0574" offset=".6473"/>
   <stop stop-color="#f1b44d" stop-opacity=".0737" offset=".7033"/>
   <stop stop-color="#f0b146" stop-opacity=".0965" offset=".7819"/>
   <stop stop-color="#f0b044" stop-opacity=".16" offset="1"/>
  </linearGradient>
  <linearGradient id="a" x2="0" y1="310.29" y2="8.1978" gradientUnits="userSpaceOnUse">
   <stop stop-color="#ded643" offset="0"/>
   <stop stop-color="#d5b22c" offset=".618"/>
   <stop stop-color="#d8d03e" offset=".6292"/>
   <stop stop-color="#e4e061" offset=".9831"/>
  </linearGradient>
  <linearGradient id="l" x2="0" y1="310.29" y2="8.1978" gradientUnits="userSpaceOnUse">
   <stop stop-color="#a258c8" stop-opacity=".13" offset="0"/>
   <stop stop-color="#9f58c8" stop-opacity=".1793" offset=".1518"/>
   <stop stop-color="#9556c7" stop-opacity=".2162" offset=".2656"/>
   <stop stop-color="#8554c6" stop-opacity=".2491" offset=".3669"/>
   <stop stop-color="#6f51c4" stop-opacity=".2797" offset=".4611"/>
   <stop stop-color="#514dc2" stop-opacity=".3086" offset=".5503"/>
   <stop stop-color="#2d49c0" stop-opacity=".336" offset=".6346"/>
   <stop stop-color="#1846be" stop-opacity=".35" offset=".6778"/>
   <stop stop-color="#3862e1" offset="1"/>
  </linearGradient>
  <linearGradient id="j" x2="0" y1="8.1973" y2="310.29" gradientUnits="userSpaceOnUse">
   <stop stop-color="#fff" stop-opacity=".77" offset="0"/>
   <stop stop-color="#fff" stop-opacity="0" offset=".45"/>
   <stop stop-color="#dce2f3" stop-opacity=".0052" offset=".4677"/>
   <stop stop-color="#b3c0e4" stop-opacity=".0122" offset=".4921"/>
   <stop stop-color="#8da1d7" stop-opacity=".0202" offset=".5194"/>
   <stop stop-color="#6d86cb" stop-opacity=".0288" offset=".5491"/>
   <stop stop-color="#516fc2" stop-opacity=".0384" offset=".582"/>
   <stop stop-color="#3b5dba" stop-opacity=".0492" offset=".6192"/>
   <stop stop-color="#2a4fb4" stop-opacity=".0618" offset=".6625"/>
   <stop stop-color="#1f45b0" stop-opacity=".0774" offset=".7161"/>
   <stop stop-color="#1840ae" stop-opacity=".0993" offset=".7913"/>
   <stop stop-color="#163ead" stop-opacity=".16" offset="1"/>
  </linearGradient>
  <radialGradient id="c" cx="258.09" cy="231.65" r="104.92" gradientTransform="matrix(1 0 0 .5 0 115.83)" gradientUnits="userSpaceOnUse">
   <stop stop-color="#f6e134" stop-opacity="0" offset="0"/>
   <stop stop-color="#f4d538" stop-opacity=".2329" offset=".3328"/>
   <stop stop-color="#f0b443" stop-opacity=".6577" offset=".9396"/>
   <stop stop-color="#f0b044" stop-opacity=".7" offset="1"/>
  </radialGradient>
  <radialGradient id="k" cx="145.14" cy="159.24" r="123.17" gradientTransform="matrix(1 0 0 .5 0 79.621)" gradientUnits="userSpaceOnUse">
   <stop stop-color="#4df196" stop-opacity="0" offset="0"/>
   <stop stop-color="#4def99" stop-opacity=".1585" offset=".2264"/>
   <stop stop-color="#4be8a4" stop-opacity=".2975" offset=".425"/>
   <stop stop-color="#49ddb6" stop-opacity=".4292" offset=".6131"/>
   <stop stop-color="#46cccf" stop-opacity=".5564" offset=".7949"/>
   <stop stop-color="#42b8f0" stop-opacity=".6793" offset=".9704"/>
   <stop stop-color="#41b4f6" stop-opacity=".7" offset="1"/>
  </radialGradient>
 </defs>
 <g transform="translate(-1)">
  <path d="m98.857 301.62s2.703 36.586 21.74 28.807c0 0 7.727-5.861 8.867-11.143l46.405 3.58 139.3-9.791s47.166-20.506-25.83-20.738-135.69 21.109-135.69 21.109l-6.813-7.645-20.498-2.379-6.518 1.229s-12.772-7.363-15.519 1.93l-5.444-4.959z" fill="#eeefef" stroke="#000" stroke-width=".25"/>
  <path d="m317.73 302.01c6.125-2.25 13.854-0.461 10.444-4.668-54.824-67.656-11.174-64.344-21.389-83.344s-28.785-7-38.593-13.914-6.279-54.498-6.279-54.498c-5.22 1.494-4.8 0.883-10.821 3.506 0 0 0.241 52.572 12.908 57.239s41.666 0.334 37.333 13.667-12.666 30.001-0.666 47.667 17.063 34.345 17.063 34.345z" fill="url(#i)"/>
  <path d="m317.73 302.01c6.125-2.25 13.854-0.461 10.444-4.668-54.824-67.656-11.174-64.344-21.389-83.344s-28.785-7-38.593-13.914-6.279-54.498-6.279-54.498c-5.22 1.494-4.8 0.883-10.821 3.506 0 0 0.241 52.572 12.908 57.239s41.666 0.334 37.333 13.667-12.666 30.001-0.666 47.667 17.063 34.345 17.063 34.345z" fill="url(#h)" opacity=".51"/>
  <path d="m317.73 302.01c6.125-2.25 13.854-0.461 10.444-4.668-54.824-67.656-11.174-64.344-21.389-83.344s-28.785-7-38.593-13.914-6.279-54.498-6.279-54.498c-5.22 1.494-4.8 0.883-10.821 3.506 0 0 0.241 52.572 12.908 57.239s41.666 0.334 37.333 13.667-12.666 30.001-0.666 47.667 17.063 34.345 17.063 34.345z" fill="url(#g)" opacity=".7"/>
  <g opacity=".49">
   <path d="m317.956,301.194c-2.978-9.119-7.22-17.846-11.995-26.146-3.694-6.419-8.177-12.034-10.191-19.28-2.294-8.251-.219-16.891 2.309-24.807 1.688-5.282 7.055-13.397 1.856-18.263-3.798-3.555-11.225-3.606-16.035-4.094-6.606-.669-14.034-.538-20.246-3.165-5.457-2.307-7.166-11.582-8.306-16.56-1.975-8.627-2.782-17.546-3.359-26.36-.202-3.087-.342-6.178-.443-9.27-.036-1.087-.063-2.176-.082-3.264-.021-1.05 4.206-2 5.447-2.37 1.024-.305 4.563-1.121 4.574-1.302-.064.977-.119,1.955-.171,2.933-.176,3.279-.282,6.562-.349,9.846-.119,5.968-.041,11.944.319,17.902 .427,7.074.917,15.415 4.736,21.609 4.998,8.104 19.858,3.63 27.792,5.452 5.174,1.188 9.005,4.716 11.841,9.043 3.883,5.926 1.641,10.536-1.592,15.91-3.452,5.736-5.012,11.711-4.337,18.376 .748,7.395 4.058,14.443 7.54,20.898 2.622,4.857 5.66,9.485 8.799,14.02 1.439,2.08 12.865,16.277 12.075,16.967-.726.632-2.812.581-3.678.686-2.223.271-4.347.623-6.504,1.239-.069.021.059.709 0,.727 1.253-.358 10.66-1.179 10.668-2.525 .016-2.606-2.834-4.82-4.342-6.737-7.392-9.396-14.382-19.308-19.577-30.107-5.023-10.444-7.223-21.375-1.254-31.782 2.331-4.063 4.78-7.738 4.533-12.53-.261-5.038-4.952-10.058-8.903-12.697-4.037-2.698-9.179-3.042-13.879-3.073-5.882-.038-11.979.782-17.213-2.457-2.468-1.526-3.547-5.096-4.327-7.681-3.193-10.58-2.893-22.7-2.674-33.579 .083-4.115.26-8.231.538-12.337 .005-.074-.027-.706-.001-.713-3.471.944-6.755,1.845-10.079,3.26-.044.019-.003.557-.003.62 .125,10.657.863,21.359 2.414,31.904 .984,6.691 2.283,13.678 5.377,19.755 4.124,8.103 15.136,7.219 22.956,7.931 5.36.487 10.97.877 15.938,3.108 6.503,2.922 2.604,10.22.888,15.169-2.37,6.831-4.309,13.832-4.235,21.114 .119,11.896 7.386,20.386 12.923,30.283 4.094,7.318 7.647,15.095 10.253,23.075-.072-.219.071-.507-.001-.728z" fill="#fff"/>
  </g>
  <path d="m317.73 302.01c6.125-2.25 13.854-0.461 10.444-4.668-54.824-67.656-11.174-64.344-21.389-83.344s-28.785-7-38.593-13.914-6.279-54.498-6.279-54.498c-5.22 1.494-4.8 0.883-10.821 3.506 0 0 0.241 52.572 12.908 57.239s41.666 0.334 37.333 13.667-12.666 30.001-0.666 47.667 17.063 34.345 17.063 34.345z" fill="none" stroke="#717171" stroke-miterlimit="1" stroke-width=".5878"/>
  <g opacity=".58">
   <path d="m317.73,302.072c1.287-.409 11.13-1.208 11.228-2.693 .049-.746.084-.499-.219-1.282-1.098-2.845-4.55-5.817-6.42-8.255-2.05-2.673-4.024-5.401-5.963-8.156-3.394-4.822-6.534-9.825-9.336-15.015-5.77-10.688-10.039-23.257-4.005-34.697 2.179-4.131 5.603-8.008 5.368-12.943-.304-6.384-6.147-12.281-11.565-14.771-8.018-3.684-17.175-.324-25.438-2.678-9.373-2.669-9.279-17.99-9.76-25.607-.635-10.067-.444-20.263.292-30.329 .001-.012-.005-.117 0-.119-3.725,1.032-7.252,1.979-10.821,3.506-.007.003-.001.083-.001.091 .06,10.656.834,21.384 2.38,31.925 1.045,7.129 2.391,14.819 6.073,21.123 3.634,6.22 12.11,6.061 18.476,6.67 6.715.643 17.518.017 22.563,5.406 2.915,3.114-.278,8.743-1.409,11.974-2.073,5.922-3.884,11.872-4.552,18.133-.747,6.998.859,13.946 4.083,20.173 3.295,6.364 7.704,12.148 11.014,18.552 2.482,4.805 4.653,9.777 6.565,14.835 .519,1.37 1.016,2.756 1.447,4.157-.012-.037.012-.084 0-.121-2.336-7.594-5.819-14.896-9.532-21.895-3.411-6.428-8.021-12.214-11.042-18.826-3.658-8.006-3.045-17.078-.967-25.414 1.336-5.36 3.41-10.519 5.144-15.756 .253-.765.448-1.601.435-2.412-.116-6.763-9.919-7.461-14.84-8.063-7.364-.901-17.763.078-24.269-4.012-5.034-3.165-6.594-11.564-7.773-16.838-1.855-8.295-2.655-16.844-3.225-25.311-.204-3.041-.346-6.085-.451-9.13-.04-1.162-.069-2.323-.093-3.485-.036-1.77-.35-1.516 1.6-2.35 1.139-.486 9.202-3.024 9.167-2.515-.142,2.069-.242,4.141-.332,6.213-.223,5.171-.296,10.348-.231,15.524 .093,7.396.486,14.874 1.977,22.133 1.443,7.026 4.124,11.654 11.694,12.611 8.98,1.135 17.803-1.457 25.755,4.241 4.439,3.181 8.708,9.665 7.35,15.4-1.577,6.655-6.98,11.399-7.989,18.468-.998,6.991 1.32,14.113 4.066,20.435 3.633,8.364 8.764,16.072 14.047,23.466 3.358,4.699 7.232,9.048 10.52,13.783 1.525,2.196-9.792,3.346-11.009,3.733-.014.004.009.117-.002.121z"/>
  </g>
  <path d="m369.98 238c2.048-10.336 4.425-23.02 5.023-29.056 2.075-20.921-22.025-39.134-36.061-46.764 0 0 2.942 4.824 0 17.824s-5.058 25 0 26 16.077-4 16.567 10 14.471 21.996 14.471 21.996z" fill="url(#f)"/>
  <path d="m369.98 238c2.048-10.336 4.425-23.02 5.023-29.056 2.075-20.921-22.025-39.134-36.061-46.764 0 0 2.942 4.824 0 17.824s-5.058 25 0 26 16.077-4 16.567 10 14.471 21.996 14.471 21.996z" fill="url(#e)" opacity=".7"/>
  <g opacity=".49">
   <path d="m369.522,236.686c-4.821-3.253-8.789-7.54-11.372-12.77-2.956-5.984-.211-15.673-7.954-18.412-2.565-.907-5.614-.45-8.246-.296-5.856.343-5.645-4.188-5.201-9.341 .76-8.838 4.031-17.28 4.158-26.185 .002-.144.003-.288 0-.432-.015-.695-.018-1.468-.085-2.163-.154-1.583-1.349-3.633.67-2.468 8.132,4.692 15.602,10.621 21.91,17.573 6.762,7.453 11.964,17.068 10.844,27.419-.983,9.086-2.962,18.117-4.724,27.075-.031.161.031.34 0,.5 2.143-10.896 5.79-22.753 4.776-33.973-1.609-17.814-19.924-31.661-34.102-39.841 .049.028-.02.426 0,.5 2.896,11.091-3.071,23.136-3.642,34.292-.214,4.175.398,7.684 5.395,7.544 3.383-.095 6.591-.572 9.747.913 4.229,1.99 4.019,7.252 4.572,11.092 1.188,8.24 6.478,14.901 13.253,19.473-.073-.051.082-.447.001-.5z" fill="#fff"/>
  </g>
  <path d="m369.98 238c2.048-10.336 4.425-23.02 5.023-29.056 2.075-20.921-22.025-39.134-36.061-46.764 0 0 2.942 4.824 0 17.824s-5.058 25 0 26 16.077-4 16.567 10 14.471 21.996 14.471 21.996z" fill="none" stroke="#f5514b" stroke-miterlimit="1" stroke-width=".25"/>
  <g opacity=".58">
   <path d="m369.979,238.621c1.899-9.619 3.972-19.298 5.023-29.056 .413-3.827-.005-7.747-.976-11.448-4.299-16.378-21.01-28.807-35.085-36.566 .156.086-.11,1.058 0,1.25 1.843,3.216 1.337,7.895.957,11.264-.84,7.449-3.245,14.62-3.912,22.121-.418,4.689-.546,10.696 5.542,10.569 3.399-.071 6.757-.686 9.94.862 4.638,2.255 3.745,8.846 4.564,13.024 1.452,7.404 7.541,14.245 13.947,17.98-.174-.102.188-1.141 0-1.25-6.296-3.672-11.39-9.802-13.619-16.721-1.514-4.696.021-10.358-4.24-13.868-2.78-2.29-7.314-1.427-10.591-1.276-6.437.296-5.84-5.864-5.238-11.012 .871-7.46 3.306-14.643 3.893-22.139 .263-3.358.457-7.84-1.241-10.804v1.25c11.952,6.588 23.314,15.451 30.753,27.038 4.557,7.1 5.945,14.48 4.752,22.824-1.185,8.281-2.848,16.504-4.468,24.708-.08.402.079.851-.001,1.25z" fill="#be1e2d"/>
  </g>
  <path d="m117.92 314.79c1.023 4.311-0.599 8.004-3.623 8.244s-6.304-3.059-7.326-7.371 0.599-8.004 3.623-8.246 6.303 3.061 7.326 7.373z" stroke="#000" stroke-width="1.1555"/>
  <g opacity=".35">
   <path d="m146.96 282.74s31.003-98.499 93.131-129.29 83.103-0.062 97.337 7.193 38.811 24.82 37.293 45.789-4.678 63.898-31.016 81.877-100.4 38.23-167.84 34.557l-19.392-6.246-15.084-16.926 5.568-16.955z" fill="#f6dd23"/>
   <path d="m146.96 282.74s31.003-98.499 93.131-129.29 83.103-0.062 97.337 7.193 38.811 24.82 37.293 45.789-4.678 63.898-31.016 81.877-100.4 38.23-167.84 34.557l-19.392-6.246-15.084-16.926 5.568-16.955z" fill="url(#d)"/>
   <path d="m146.96 282.74s31.003-98.499 93.131-129.29 83.103-0.062 97.337 7.193 38.811 24.82 37.293 45.789-4.678 63.898-31.016 81.877-100.4 38.23-167.84 34.557l-19.392-6.246-15.084-16.926 5.568-16.955z" fill="url(#c)" opacity=".51"/>
   <path d="m146.96 282.74s31.003-98.499 93.131-129.29 83.103-0.062 97.337 7.193 38.811 24.82 37.293 45.789-4.678 63.898-31.016 81.877-100.4 38.23-167.84 34.557l-19.392-6.246-15.084-16.926 5.568-16.955z" fill="url(#b)" opacity=".7"/>
   <g opacity=".49">
    <path d="m192.169,323.08c-3.873-.006-7.743-.078-11.612-.218-1.966-.071-3.928.03-5.804-.574l-10.194-3.286-7.957-2.565c-.081-.026-.774-.876-1.012-1.144l-3.226-3.627-7.83-8.803c-.966-1.086-3.076-2.459-2.585-3.951 1.767-5.379 3.577-10.745 5.3-16.139 2.399-7.513 5.373-14.869 8.446-22.127 6.744-15.924 14.615-31.403 23.767-46.082 10.805-17.328 23.624-33.732 39.388-46.831 8.64-7.18 18.148-12.796 28.395-17.368 12.734-5.683 26.503-9.921 40.541-10.142 13.267-.208 25.457,4.214 36.323,11.59 4.391,2.98 8.472,6.506 13.177,8.993 5.877,3.107 11.48,6.583 16.715,10.693 9.672,7.593 19.135,18.102 20.411,30.853 .433,4.326-.313,8.939-.694,13.256-.408,4.619-.93,9.227-1.593,13.814-2.94,20.338-9.071,42.874-25.608,56.462-7.232,5.942-16.251,9.884-24.84,13.401-11.28,4.619-22.972,8.229-34.753,11.32-30.826,8.089-62.88,12.429-94.755,12.475-.162,0 .02.118.097.118 29.231-.042 58.468-3.786 86.901-10.502 12.366-2.921 24.603-6.478 36.52-10.894 8.879-3.291 17.694-7.08 25.754-12.088 17.93-11.141 25.613-32.021 29.5-51.814 1.785-9.09 2.747-18.316 3.454-27.545 .367-4.793.464-9.232-.935-13.904-1.65-5.51-4.939-10.448-8.606-14.812-4.004-4.764-8.785-8.862-13.792-12.53-4.915-3.601-10.264-6.283-15.474-9.388-4.603-2.743-8.73-6.275-13.216-9.21-4.298-2.812-8.863-5.171-13.685-6.946-23.841-8.777-51.086.315-72.312,11.9-17.784,9.706-32.331,24.628-44.5,40.618-11.448,15.042-20.961,31.531-29.185,48.526-5.354,11.066-10.178,22.42-14.287,34.008-.633,1.787-1.229,3.584-1.82,5.383-1.138,3.465-2.275,6.928-3.413,10.392-.222.677-2.12,4.792-1.623,5.352l9.35,10.513 4.643,5.219c.45.506.709.953 1.341,1.157l14.52,4.681 4.462,1.439c1.896.611 4.708.229 6.703.295 3.231.107 6.465.146 9.698.151 .164,0-.018-.119-.095-.119z"/>
   </g>
   <path d="m146.96 282.74s31.003-98.499 93.131-129.29 83.103-0.062 97.337 7.193 38.811 24.82 37.293 45.789-4.678 63.898-31.016 81.877-100.4 38.23-167.84 34.557l-19.392-6.246-15.084-16.926 5.568-16.955z" fill="none" stroke="#f0b044" stroke-miterlimit="1" stroke-width=".25"/>
   <g opacity=".58">
    <path d="m146.961,283.361c7.216-22.851 18.012-45.033 30.393-65.477 22.652-37.401 55.566-69.749 100.581-76.491 16.006-2.397 31.353,1.098 44.84,9.887 4.287,2.793 8.243,6.069 12.571,8.798 7.626,4.809 15.294,8.807 22.204,14.753 8.195,7.053 15.438,16.197 17.042,27.159 .709,4.851-.337,10.337-.797,15.204-.468,4.939-1.092,9.861-1.871,14.762-3.225,20.255-10.054,42.236-27.19,55.002-13.928,10.375-32.21,15.911-48.633,20.733-24.248,7.12-49.342,11.515-74.501,13.706-13.458,1.172-26.986,1.526-40.487,1.077-6.755-.225-12.625-2.614-19.044-4.683l-5.592-1.801c-1.299-.418-3.223-3.616-4.104-4.604l-10.98-12.321v1.25l5.568-16.954c.125-.379-.123-.877 0-1.25l-5.481,16.689c-.727,2.213 2.196,4.076 3.446,5.48 2.482,2.785 4.965,5.57 7.447,8.356 .917,1.028 2.809,4.188 4.163,4.624l17.982,5.791c4.188,1.35 9.255.775 13.619.846 7.644.12 15.291-.103 22.924-.51 14.449-.77 28.841-2.503 43.107-4.896 24.13-4.049 48.303-10.139 70.863-19.728 7.961-3.384 15.96-7.311 22.644-12.872 8.073-6.717 13.421-16.209 17.253-25.834 6.671-16.755 9.551-36.359 9.857-54.369 .316-18.5-15.321-32.183-29.716-41.326-5.078-3.225-10.357-5.806-15.23-9.357-4.789-3.489-9.622-6.857-14.929-9.525-16.912-8.499-35.985-6.954-53.569-1.428-21.919,6.888-40.746,19.221-56.483,35.808-24.047,25.346-40.988,57.635-53.51,90.02-1.561,4.035-3.083,8.104-4.387,12.23-.12.382.119.875 0,1.251z" fill="#f6e134"/>
   </g>
  </g>
  <path d="m85.35 15.363-1.722 32.244" fill="none" opacity=".2" stroke="#000" stroke-width="1.1555"/>
  <g opacity=".35">
   <path d="m126.34 303.42s-62.86-63.475-67.575-174.84 34.214-129.34 60.937-117.05 89.666 66.703 107.57 118.72-21.188 88.098-31.242 100.48-48.348 75.258-48.348 75.258l-2.841 2.68-9.763 1.615-8.741-6.865z" fill="url(#a)"/>
   <path d="m126.34 303.42s-62.86-63.475-67.575-174.84 34.214-129.34 60.937-117.05 89.666 66.703 107.57 118.72-21.188 88.098-31.242 100.48-48.348 75.258-48.348 75.258l-2.841 2.68-9.763 1.615-8.741-6.865z" fill="url(#l)"/>
   <path d="m126.34 303.42s-62.86-63.475-67.575-174.84 34.214-129.34 60.937-117.05 89.666 66.703 107.57 118.72-21.188 88.098-31.242 100.48-48.348 75.258-48.348 75.258l-2.841 2.68-9.763 1.615-8.741-6.865z" fill="url(#k)" opacity=".51"/>
   <path d="m126.34 303.42s-62.86-63.475-67.575-174.84 34.214-129.34 60.937-117.05 89.666 66.703 107.57 118.72-21.188 88.098-31.242 100.48-48.348 75.258-48.348 75.258l-2.841 2.68-9.763 1.615-8.741-6.865z" fill="url(#j)" opacity=".7"/>
   <g opacity=".49">
    <path d="m126.86,302.873c-12.517-13.129-22.645-28.838-31.397-44.635-10.646-19.213-18.896-39.757-24.905-60.873-8.013-28.165-11.358-57.226-11.407-86.464-.037-21.821 1.471-44.341 8.302-65.213 4.217-12.886 11.109-26.233 23.36-33.102 7.4-4.149 16.06-4.541 24.082-2.135 4.297,1.289 8.34,3.57 12.189,5.839 8.166,4.812 15.806,10.525 23.165,16.481 18.533,15 35.451,32.262 49.947,51.192 14.777,19.299 28.417,41.931 30.687,66.629 2.053,22.343-6.733,43.396-19.85,61.023-5.048,6.784-10.996,12.781-16.197,19.426-3.887,4.965-7.314,10.316-10.774,15.582-9.769,14.863-19.16,29.979-28.505,45.11-2.676,4.332-5.342,8.669-7.997,13.015-.816,1.336-2.242,3.129-3.76,3.381l-5.097.844c-.638.105-3.089.775-3.418.518l-8.425-6.618c-.06-.047-.28.029-.233.064l7.256,5.699c.259.204.983,1.027 1.351,1.01 1.152-.059 2.349-.387 3.485-.575 2.202-.364 5.046-.171 6.724-1.753 1.232-1.162 2.002-1.998 2.856-3.395 7.608-12.443 15.293-24.842 23.079-37.174 4.777-7.568 9.592-15.112 14.533-22.574 3.62-5.467 7.23-10.994 11.516-15.97 12.177-14.136 23.835-28.31 29.905-46.286 3.742-11.08 4.883-22.861 3.468-34.46-1.502-12.313-6.157-24.021-11.858-34.952-11.188-21.453-26.976-40.507-43.957-57.607-14.35-14.451-30.133-28.253-47.694-38.695-8.511-5.061-18.098-8.998-28.171-6.795-8.514,1.862-15.604,7.189-20.804,14.059-8.349,11.029-12.546,24.796-15.237,38.184-5.065,25.202-5.086,51.704-3.169,77.237 3.741,49.827 20.179,99.053 48.238,140.489 5.577,8.235 11.604,16.347 18.48,23.559 .05.054.279-.016.232-.065z"/>
   </g>
   <path d="m126.34 303.42s-62.86-63.475-67.575-174.84 34.214-129.34 60.937-117.05 89.666 66.703 107.57 118.72-21.188 88.098-31.242 100.48-48.348 75.258-48.348 75.258l-2.841 2.68-9.763 1.615-8.741-6.865z" fill="none" stroke="#3867f6" stroke-miterlimit="1" stroke-width=".25"/>
   <g opacity=".58">
    <path d="m126.34,302.795c-13.951-14.129-24.833-32.049-34.059-49.453-25.298-47.725-35.594-101.533-33.657-155.301 .731-20.301 3.178-41.39 11.216-60.235 4.44-10.409 11.307-20.503 21.625-25.759 7.645-3.894 16.498-4.042 24.544-1.366 14.762,4.908 28.159,16.584 39.814,26.438 18.418,15.571 35.215,33.321 49.348,52.875 14.759,20.422 27.861,44.9 26.609,70.819-.983,20.346-10.824,38.893-23.219,54.578-7.606,9.624-15.531,18.427-22.337,28.687-11.552,17.413-22.527,35.218-33.471,53.017-2.491,4.05-4.464,7.704-7.909,10.952-.685.646-9.204,2.055-9.851,1.547l-8.653-6.799c.196.154-.208,1.086 0,1.25l6.917,5.434c2.511,1.971 3.969,1.076 7.193.543 3.533-.584 4.427-.758 7.025-3.207 .63-.595 1.022-1.529 1.469-2.26 7.578-12.396 15.234-24.744 22.988-37.031 7.751-12.28 15.191-25.293 24.417-36.553 9.814-11.979 19.916-23.053 26.848-37.11 7.717-15.647 10.333-33.128 7.635-50.316-3.742-23.846-18.195-45.729-32.847-64.309-14.585-18.496-31.632-35.221-50.075-49.852-10.403-8.252-22.448-17.989-35.714-21.022-23.246-5.316-38.321,15.891-45.041,35.148-6.831,19.578-8.406,40.901-8.748,61.48-.38,22.9 1.211,45.795 5.46,68.313 6.413,33.993 19.032,66.864 37.007,96.415 7.314,12.023 15.525,24.259 25.466,34.326-.204-.205.213-1.034 0-1.249z" fill="#3a60d1"/>
   </g>
  </g>
  <path d="m179.91 59.206-54.348 70.876 14.707 37.023 5.773 35.446-4.651 97.14-6.95-0.836" fill="none" opacity=".2" stroke="#000" stroke-width="1.1555"/>
  <path d="m206.72 91.546-66.443 75.559" fill="none" opacity=".2" stroke="#000" stroke-width="1.1555"/>
  <path d="m227.94 132.25-81.89 70.304" fill="none" opacity=".2" stroke="#000" stroke-width="1.1555"/>
  <path d="m125.56 130.08-20.197 4.618-6.609-7.847-18.585-8.769 3.454-70.477 26.856-38.991" fill="none" opacity=".2" stroke="#000" stroke-width="1.1555"/>
  <path d="m159.38 39.559-60.616 87.294" fill="none" opacity=".2" stroke="#000" stroke-width="1.1555"/>
  <path d="m105.37 134.7s5.277 140.14 29.076 164.16c0 0-68.396-80.221-54.27-180.77l56.323-96.56" fill="none" opacity=".2" stroke="#000" stroke-width="1.1555"/>
  <path d="m161.73 246.35 48.702-26.471 11.417 1.375 15.168 7.871 14.193 11.781-18.021 19.989-72.541 46.156 2.229 6.586 13.226-3.803 73.893-21.23 98.7-4.239" fill="none" opacity=".2" stroke="#000" stroke-width="1.1555"/>
  <path d="m333.8 158.44-96.775 70.681" fill="none" opacity=".2" stroke="#000" stroke-width="1.1555"/>
  <path d="m374.27 212.37-123.06 28.537" fill="none" opacity=".2" stroke="#000" stroke-width="1.1555"/>
  <path d="m365.75 257.26-132.55 3.631" fill="none" opacity=".2" stroke="#000" stroke-width="1.1555"/>
  <path d="m291.88 140.1-70.023 81.157" fill="none" opacity=".2" stroke="#000" stroke-width="1.1555"/>
  <path d="m264.47 315.97-77.086-9.287" fill="none" opacity=".2" stroke="#000" stroke-width="1.1555"/>
  <path d="m210.44 219.88 31.326-67.74" fill="none" opacity=".2" stroke="#000" stroke-width="1.1555"/>
  <path d="m153.75 330.9s-14.815-40.059-21.161-16.65c0 0-0.439 7.512 14.06 21.086l3.674 5.727-24.666-21.605-3.957 1.816 6.045 33.186-1.256 10.424 2.482 0.301 1.436-11.914-5.767-25.371s15.82 12.984 18.242 13.779 8.894 5.604 8.894 5.604l7.548-4.127-5.574-12.256z" fill="#eeefef" stroke="#000" stroke-width=".25"/>
  <path d="m153.08 318.22s9.14-12.496 14.862 7.33l-1.465 12.166 7.2-21.701 32.632 34.303 14.63 12.336 15.388 1.855-1.88 2.291-14.977-1.805-17.974-13.244-23.058-25.441-8.804 19.086-6.693 1.207-10.733-19.582c1e-3 -1e-3 -2.53-7.198 0.872-8.801z" fill="#eeefef" stroke="#000" stroke-width=".25"/>
  <path d="m142.57 344.29-5.736-6.728-8.15-6.393 10.203 14.557 1.827 9.789 5.455 0.656z" fill="#eeefef" stroke="#000" stroke-width=".25"/>
  <path d="m242.1 354.13-15.149-3.84-17.143-10.004-16.778-16.99-4.121-0.014 20.313 21.875 16.242 9.117 18.48 4.61z" fill="#eeefef" stroke="#000" stroke-width=".25"/>
  <path d="m14.614,269.984c8.634.296 17.405,2.923 25.527,5.773 8.359,2.933 16.574,6.289 24.752,9.69 13.568,5.642 27.028,11.554 40.409,17.628l1.004.457c.581.266 1.051-.504.505-.863l-60.794-40.064-28.139-18.543c-.541-.355-1.041.51-.505.863l60.794,40.064 28.139,18.543c.168-.287.336-.576.505-.863-10.948-5-21.974-9.838-33.045-14.559-15.487-6.605-31.212-13.79-47.729-17.387-3.748-.816-7.578-1.608-11.423-1.74-.645-.02-.643.98 0,1.001z"/>
  <path d="m23.971,249.072-6.532-2.611c-1.162-.457-4.191-3.094.633-5.25s5.899,7.861 5.899,7.861z"/>
  <path d="m17.918 269.6s-3.443 2.953-4.384 3.775-5.613 3.121-5.31-2.154 9.694-1.621 9.694-1.621z"/>
  <g opacity=".77">
   <path transform="matrix(.9928 .1196 -.1196 .9928 21.762 -34.175)" d="m309.51 164.21a13.917 12.756 0 1 0 -27.834 0 13.917 12.756 0 1 0 27.834 0" fill="#cf3d51" stroke="#333b8d"/>
   <path d="m306.025,164.392c-.654,5.439-5.996,9.271-11.936,8.556-5.934-.715-10.215-5.706-9.559-11.146 .654-5.44 6-9.271 11.934-8.556 5.938.715 10.218,5.706 9.561,11.146z" fill="#1a171b" stroke="#fff"/>
   <path d="m303.137,162.861c-.516,4.274-4.713,7.284-9.375,6.722-4.666-.562-8.025-4.482-7.512-8.756 .516-4.273 4.711-7.284 9.375-6.722s8.025,4.482 7.512,8.756z" fill="#38398c"/>
  </g>
  <g opacity=".77">
   <path transform="matrix(.9928 .1196 -.1196 .9928 31.346 -37.202)" d="m339.61 242.62a13.917 12.756 0 1 0 -27.834 0 13.917 12.756 0 1 0 27.834 0" fill="#cf3d51" stroke="#333b8d"/>
   <path transform="matrix(.9928 .1196 -.1196 .9928 31.226 -37.189)" d="m336.2 241.5a10.825 9.921 0 1 0 -21.65 0 10.825 9.921 0 1 0 21.65 0" fill="#1a171b" stroke="#fff"/>
   <path transform="matrix(.9928 .1195 -.1195 .9928 31.048 -37.102)" d="m333.29 240.25a8.504 7.795 0 1 0 -17.008 0 8.504 7.795 0 1 0 17.008 0" fill="#38398c"/>
  </g>
 </g>
</svg>
