<?xml version="1.0" encoding="UTF-8"?>
<!DOCTYPE svg  PUBLIC '-//W3C//DTD SVG 1.1//EN'  'http://www.w3.org/Graphics/SVG/1.1/DTD/svg11.dtd'>
<svg width="841.89px" height="447.05px" enable-background="new 0 0 841.89 447.053" version="1.1" viewBox="0 0 841.89 447.053" xml:space="preserve" xmlns="http://www.w3.org/2000/svg">
		<path d="m294.56 284.23h0.321c-0.143-1.033-0.64-0.96-1.284-1.445-0.515-0.385-0.964-1.199-1.604-1.442-2.08-0.793-3.629 0.537-5.138-0.322-0.994-0.566-1.874-2.131-2.568-3.048-0.802-0.806-1.604-1.607-2.407-2.409-1.859-2.463-4.271-4.481-6.1-6.903-5.86-7.76-13.241-14.233-19.103-21.992-2.173-2.876-5.021-5.273-7.224-8.186-0.556-0.736-1.404-1.285-1.925-2.088-0.321-0.488 0.611-2.102 0.48-2.89-0.06-0.362 0.329-1.442 0.482-2.086 0.493-2.076 0.175-4.937-0.642-6.261-1.425-2.312-3.819-4.451-5.939-6.1-0.054-0.161-0.107-0.321-0.161-0.482-0.948-0.705-2.502-0.765-3.21-1.766-2.35-3.318-3.903-7.139-6.1-10.595-0.935-1.469-2.402-2.73-3.372-4.174-0.83-1.235-1.124-2.561-1.927-3.854-0.567-0.913-1.668-1.547-2.246-2.407-0.93-1.377-1.641-3.678-2.249-5.296 1.546-1.024 3.241-2.24 4.816-3.212-0.082-2.221-1-3.545-1.605-5.137-0.313-0.826-0.175-1.417-0.482-2.247-0.652-1.766-1.731-3.755-2.247-5.618-0.054-0.804-0.107-1.605-0.161-2.408-0.321-0.269-0.642-0.536-0.963-0.804-0.366-0.509-0.733-1.367-0.963-1.926-0.387-0.94-1.101-2.554-0.803-3.852 0.161-0.481 0.321-0.963 0.482-1.444-0.04-0.176-0.557-0.864-0.643-1.123-0.396-1.209-0.129-2.455-0.641-3.692-0.2-0.482-0.781-1.157-0.963-1.766-0.189-0.626 0.148-1.23 0-1.605-0.189-0.475-1.146-1.095-1.445-1.605-0.637-1.084-0.8-2.171-1.445-3.21-0.737-1.19-1.846-2.333-2.567-3.532-0.108-0.375-0.214-0.75-0.321-1.125-0.395-0.407-1.3-0.476-1.766-0.802-1.198-0.835-2.397-2.212-3.692-2.889-1.197-0.625-2.468-1.208-3.692-1.605l-2.568-0.321c-0.054-0.161-0.106-0.321-0.161-0.482-0.58-0.377-3.174-1.504-3.853-1.605 0.068-0.465-0.033-1.113-0.481-1.445 0.104-0.986 0.511-0.884 0.962-1.444 4.856-0.257 7.818-1.311 11.078-2.89 0.458-1.076 0.802-3.269 0-4.334 0.151-0.812 0.854-1.399 1.444-1.766 1e-3 -0.873-0.095-1.367-0.321-1.926 0.388-0.2 0.617-0.427 0.962-0.642-0.034-1.522-0.504-2.525-0.962-3.692 1.622-0.887 2.913-0.965 3.371-3.05-1.714-1.797-2.801-5.217-4.816-6.581 0.214-0.964 0.429-1.928 0.643-2.89 2.84 0.335 6.369 0.475 8.507-0.803 1.464-0.874 2.239-2.878 3.692-3.853 0.053-0.535 0.107-1.07 0.161-1.604-0.331 0.063-0.31 0.04-0.482 0.16h-0.161c0.054-0.107 0.108-0.215 0.161-0.321-1.857-0.067-3.846-0.533-5.458-0.962-3.535-0.943-5.743-0.469-8.348-2.408-0.628-0.467-3.404-3.801-3.371-4.174-0.298-0.269-0.799-0.246-1.124-0.482-1.886-1.37-3.489-3.386-6.582-3.532v-0.642c-0.772 0.357-2.668 0.849-4.014 0.482-0.186-0.051-1.444-0.642-1.444-0.642-0.241 0.112-0.632 0.548-0.963 0.642-1.856 0.523-3.639-0.396-4.815 0.643-0.489-0.2-0.98-0.549-1.445-0.803-0.434 0.534-1.052 0.38-1.605 0.803-0.425 0.323-0.477 1.15-0.962 1.444-1.629 0.984-4.465 3.108-5.458 4.656h-0.804c-0.069 3.218-2.71 3.558-2.889 6.421-0.018 0.291 0.565 0.605 0.642 0.803 0.557 1.431-0.338 3.48-0.481 4.334-0.269 1.592 1.24 4.048 0.802 5.458-0.147 0.474-0.811 0.848-0.963 1.283-0.413 1.183 0.175 2.042-0.643 2.729-0.06 1.372-0.037 1.936 0.803 2.408-0.08 2.194-0.66 3.646 0.32 4.976-0.104 0.928-0.53 0.836-0.802 1.445-0.161 0.588-0.322 1.178-0.482 1.766-0.499 0.761-1.495 0.739-2.408 1.124-1.449 0.611-3.079 1.597-4.655 2.087-1.07 0.107-2.141 0.214-3.211 0.321-2.584 0.657-5.028 2.124-7.223 3.05-2.189 0.924-4.559 0.949-6.421 2.087-3.591 2.193-5.788 5.259-8.187 8.668-0.843 1.199-2.105 2.256-2.89 3.532-1.243 2.026-1.653 4.818-3.05 6.742-0.748 1.031-3.167 3.584-4.173 4.334-0.653 0.486-1.453 0.796-1.926 1.445-1.707 2.336-2.563 5.921-4.816 7.704 1.073 1.653 3.172 5.294 3.692 7.225 0.465 1.723-1.412 4.825-2.086 5.619-0.213 0.25-0.741 0.241-0.962 0.479-0.611 0.66-0.943 2.225-1.445 3.051-0.858 1.414-2.132 3.099-2.729 4.656-1.644 4.288-1.625 9.563-2.729 14.446-0.107 1.712-0.214 3.425-0.32 5.138-0.24 1.027-0.681 1.938-0.803 3.05-1.976 0.95-4.538 1.781-6.1 3.21-1.107 1.417-1.783 4.846-1.124 7.384 0.251 0.964 1.058 3.763 0.321 4.977v0.32c-0.52-0.131-0.844-0.277-1.124-0.642-0.249 0.363-0.239 1.09-0.481 1.445-0.458 0.669-1.129-0.042-1.766 0.321-0.798 0.456-2.705 1.226-3.371 1.766-0.35 0.284-0.55 0.706-0.964 0.963-0.561 2.436-1.4 5.264 0 6.903-0.091 2.028-3.455 3.813-4.816 4.815-0.932 0.686-1.746 1.788-2.728 2.407-0.589 0.214-1.178 0.429-1.766 0.643-1.34 0.829-2.417 2.159-3.692 3.05-0.803 0.428-1.606 0.856-2.408 1.284-0.608 0.437-1.119 1.202-1.766 1.605-0.803 0.319-1.605 0.643-2.407 0.963-2.178 1.345-3.643 3.484-5.619 4.977-1.697 1.28-3.264 2.563-4.977 3.853-0.909 0.909-1.819 1.819-2.729 2.728-0.861 0.633-1.856 0.972-2.729 1.607-0.695 0.693-1.391 1.39-2.086 2.086-0.882 0.637-2.002 1.247-2.89 1.766-0.714 0.418-1.536 0.381-2.247 0.803-0.968 0.575-1.901 1.518-2.89 2.087-1.087 0.628-2.567 0.221-3.371 0.803-0.542 0.392-2.382 2.192-2.729 2.729v0.803c-0.264 0.566-1.107 1.857-1.605 2.248-1.884 1.474-4.367 2.266-6.261 3.691-2.087 2.087-4.174 4.174-6.261 6.26-0.054 0.161-0.107 0.322-0.16 0.481 0.803 0.482 1.605 0.965 2.408 1.446 0.589 0.161 1.178 0.32 1.766 0.481 0.906 0.585 2.62 2.897 3.21 3.853 0.205 0.329 0.062 0.958 0.321 1.284 0.278 0.349 1.381 0.601 1.766 1.125 0.965 1.312 1.764 2.573 2.729 3.851 0.977 1.294 2.456 2.317 3.372 3.692 1.023 1.538 1.376 3.406 2.408 4.977 0.409 0.623 1.174 1.165 1.604 1.766 1.454 2.026 2.75 4.483 3.693 6.902 3.194 0.666 7.003 1.068 9.31 2.568 1.78 1.158 3.187 2.953 5.297 3.852 2.85 1.216 5.824 1.46 8.83 2.569 2.555 0.944 5.405 2.328 7.866 3.372 3.234 1.373 6.542 1.67 9.792 3.05 1.314 0.557 2.679 1.44 4.174 1.926 1.069 0.16 2.141 0.322 3.21 0.481 0.87 0.441 1.466 1.517 2.408 1.927 2.126 0.925 6.157 1.167 8.829 0.803 0.053-0.054 0.107-0.106 0.161-0.161-0.242-4.965-1.256-9.571-2.248-14.125-0.622-2.861 0.963-5.338 0.643-7.866-0.833-6.562 0.412-14.375-0.963-20.708-0.054-1.445-0.107-2.889-0.161-4.334-0.739-3.186-0.853-6.887-1.606-10.114-0.053-0.802-0.107-1.604-0.16-2.406-0.393-1.693-1.157-4.688-0.642-6.902 0.58-2.501 1.668-4.762 2.408-7.063 0.37-1.15 0.202-5.55 0.642-6.261 0.053-0.161 0.107-0.321 0.16-0.481 1.126 0.017 2.336-0.556 3.21-0.322 1.368 0.365 5.617 3.041 7.063 1.927 0.68-0.408 1.672-5.046 0.962-5.619 0.197-0.361 0.278-0.32 0.643-0.481 0.735-2.999 2.079-11.143-0.643-12.842 5e-3 -1.934-0.156-3.594-0.48-4.977v-1.604c-0.214-0.483-1.076-0.897-1.285-1.446-0.053-0.535-0.107-1.069-0.161-1.604-0.363-1.127-1.635-2.138-2.568-2.729 0.018-2.372 0.015-4.573-1.124-5.778 0.034-2.389 1.752-2.342 2.729-3.691 0.501-0.693 0.906-1.826 1.124-2.729 0.316-1.31-0.786-2.014-0.481-3.211 0.401-1.577 1.634-3.071 2.408-4.334 1.368-2.233 2.319-4.512 3.691-6.741 1.099-1.786 2.499-3.641 3.372-5.619 1.414-3.21 2.561-7.709 5.137-9.793v-0.319c0.242 0.389-8e-3 1.038 0.16 1.604 0.132 0.446 0.657 0.742 0.803 1.123 0.822 2.142 0.734 4.224 2.89 4.977 0.357 0.261 1.005 0.322 1.605 0.322 0.053 1.926 0.107 3.854 0.161 5.777-0.144 0.657-0.616 1.972-0.321 2.891 0.128 0.398 0.666 1.004 0.964 1.284-0.244 2.483-2.191 3.397-3.05 5.138-0.488 0.987-0.035 2.114-0.321 3.37-0.825 3.61-1.488 10.033-0.642 13.966v2.087c-0.099 0.418 0.777 5.428 0.321 5.778 1.042 1.724 1.87 3.468 2.408 5.779v4.013c0.533 2.427 0.142 5.671 0.643 7.866v3.05c0.287 1.271 0.321 3.001 0.803 4.174 0.546 1.334 1.396 2.65 1.766 4.175 0.66 2.713-1.718 3.851-3.05 4.654-0.028 3.92-1.1 6.046-1.926 8.988-0.107 1.018-0.214 2.034-0.321 3.05-0.519 2.072-1.106 4.427-1.605 6.582-0.106 2.248-0.214 4.496-0.321 6.742-0.109 0.487-0.528 2.047-0.481 2.407 0.207 1.62 0.639 5.253 0.161 7.225-0.332 1.366-0.677 3.301-1.124 4.976-0.349 1.31 0.175 2.592-0.321 3.693-0.137 0.307-0.675 0.767-0.802 1.123-0.053 0.588-0.108 1.177-0.16 1.766-0.214 0.215-0.428 0.429-0.643 0.642-0.29 0.833 0.035 2.61 0.161 3.214 0.23 1.091-0.149 2.286-0.321 3.047-0.835 3.694 2.589 5.254 1.444 9.151-0.207 0.706-1.02 1.46-1.284 2.087-0.082 0.195-0.803 4.975-0.803 4.975 0.292 1.334 1.117 2.32 1.445 3.531v2.409c0.018 1.416 0.167 3.009 0.642 4.175l1.445 2.568c0.438 0.435 0.695 0.102 0.962 0.802 0.341 0.615-0.117 0.958-0.16 1.444 0.303 0.561 1.078 2.023 1.604 2.408 0.864 0.631 2.071 0.59 3.211 0.961 3.198 1.047 7.034 2.004 11.076 1.929-0.186 0.812-0.733 0.833-0.963 1.445-0.712 1.903-0.511 4.094-1.284 5.938-0.353 0.843-1.186 1.438-1.444 2.409-0.337 1.258-0.047 3.766 0.481 4.333 1.028 2.451 7.208 2.569 10.916 2.569h4.014c0.251-0.081 0.6-0.546 0.802-0.644 0.802-0.106 1.605-0.215 2.408-0.321 0.053-0.159 0.106-0.32 0.16-0.48 0.82-0.518 3.977-1.034 5.137-1.284h11.397c5.69-1.318 11.203-2.217 12.682-7.705 0.321-0.709-0.811-2.475-1.124-3.211-0.766-1.799-2.429-4.204-4.334-4.815h-4.173c-0.54-0.094-2.72 0.051-3.372 0.48-1.924-0.031-3.162-1.315-4.495-2.086-0.103-0.277-0.031-0.158-0.16-0.32 0.011-2.631 1.533-3.835 2.086-5.941 0.107-3.155 0.214-6.313 0.321-9.47-0.107-0.91-0.214-1.818-0.321-2.729 0.355-1.104 1.697-2.201 2.248-3.211 0.258-0.471-0.135-0.367 0-0.803 0.221-0.716 0.707-1.728 1.124-2.407 0.753-1.229 1.826-2.318 2.569-3.531 0.614-1.005 1.208-2.306 1.604-3.37 0.054-0.428 0.108-0.857 0.16-1.286 0.309-0.642 1.041-1.227 1.285-2.086v-1.767c0.47-1.43 1.178-3.276 1.605-4.977 0.053-0.962 0.107-1.926 0.16-2.89 0.199-0.702 0.769-1.569 0.963-2.245 0.166-0.577-0.198-1.452-0.16-1.768 0.049-0.406 0.657-1.322 0.803-1.764 0.053-0.535 0.107-1.072 0.16-1.606 0.514-1.714 1.558-3.722 2.087-5.457 0.666-2.189 0.473-4.235 1.123-6.421 1.625-5.462 2.499-11.869 4.013-18.14 0.346-1.43-0.029-2.448 0.322-3.854 0.876-3.517 1.269-7.021 1.284-11.396 0.053-1.338 0.107-2.677 0.16-4.014-0.3-1.282-0.453-3.209-0.481-4.495-0.022-1.002-0.159-1.733-0.32-2.407-0.054-1.659-0.107-3.318-0.161-4.977-0.092-0.212-0.558-0.486-0.643-0.803-0.176-0.654 0.23-1.322 0.482-1.605 0.183-0.122 3.235-1.172 4.013-0.642 0.16 0.053 0.321 0.107 0.48 0.16 0.294 1.545-0.333 2.577-0.641 3.854v6.901c0.299 1.114 1.07 2.356 1.444 3.372 0.107 0.694 0.215 1.391 0.322 2.086 0.262 0.575 0.875 1.477 1.284 2.088 0.691 1.034 1.871 1.827 2.568 2.889 0.605 0.131 1.633 0.624 2.568 0.321 0.94-0.306 1.424-1.52 2.568-0.804 0.519-1.101 2.224-4.865 1.605-6.741-0.685-2.078-2.507-3.605-3.372-5.458-0.55-1.178-0.599-2.353-1.123-3.53-0.248-0.558-0.843-1.099-1.124-1.606 0.497-0.96-0.501-2.489-1.123-3.371-1.154-1.637-2.94-2.765-3.692-4.815-1.064-2.903 0.659-8.354-0.964-10.755-0.597-1.578-2.703-1.421-3.691-2.569h-0.16c0.808-1.7 3.121-2.488 4.174-4.013 0.464-0.866 0.116-2.144-0.161-3.211 0.756-0.341 2.065-0.467 2.729-0.964 1.955 0.243 4.992 3.974 6.581 5.137 1.726 1.265 3.682 2.107 5.458 3.372 1.202 0.855 2.156 2.238 3.371 3.05 1.376 0.919 3.438 1.194 4.334 2.569 0.557 0.853 0.605 1.876 1.124 2.729 1.01 1.659 2.315 3.635 3.693 4.976-9e-3 0.496-0.057 0.824-0.161 1.124-0.626 0.021-1.556 0.087-1.927-0.161h-0.642c-0.268 1.714-0.536 3.427-0.803 5.137 0.642 0.643 1.284 1.285 1.926 1.928 1.921 0.963 8.183-0.569 9.15-1.285 1.293 0.465 1.994 1.986 2.89 2.89 2.636 2.659 5.059 5.537 7.705 8.187 2.969 2.975 6.277 5.775 8.829 9.151 0.803 0.748 1.605 1.497 2.408 2.245 0.643 0.852 1.763 1.69 2.247 2.569 0.368 0.667 0.25 1.024 0.803 1.445 2.5 1.903 4.366 4.787 6.742 6.581 2.439 1.843 4.578 4.305 6.422 6.742 0.909 0.91 1.818 1.82 2.729 2.729 0.312 0.484 0.402 1.31 0.641 1.768 0.202 0.088 0.485 0.192 0.643 0.32 0.438-5e-3 0.735-6e-3 0.962-0.16 0.543-0.879-0.055-1.115 0.802-2.088 1.211 0.057 2.375 1.632 2.89 2.406 0.418-0.029 0.544-0.069 0.803-0.158-0.087-1.584-1.67-3.176-2.729-3.854 0.031-0.418 0.07-0.545 0.16-0.803 1.395-0.011 4.597 0.302 5.296 0.954zm-82.831-38.204h0.642c-0.107 0.105-0.214 0.213-0.322 0.32v0.32c0.214-0.106 0.429-0.214 0.644-0.32 1.401 2.379 2.844 4.808 4.333 7.062 0.476 0.721 0.698 1.495 1.284 2.088-0.223 1.925-0.613 4.067-2.086 4.814-0.054 0.055-0.107 0.107-0.161 0.16-1.921-2.854-3.57-6.439-4.494-10.272-0.258-1.067-0.126-3.366 0.16-4.172zm28.573-2.409h-4.654c-0.399-0.216-0.643-1.566-0.964-1.927v-0.16c1.071 0.25 2.857 0.879 4.495 0.481 0.797-0.193 1.573-0.561 2.568-0.643v0.482c0.385 0.151 0.807 0.315 1.123 0.481 0.054 0.268 0.107 0.535 0.161 0.803-0.784 0.05-2.165 0.111-2.729 0.483zm3.693-1.765c-0.104 0.276-0.031 0.157-0.16 0.321-0.142-0.341-0.253-0.714-0.482-0.963 0.262-0.517 0.775-0.545 1.124-0.965h0.322c-0.155 0.592-0.431 1.219-0.804 1.607zm41.897 43.662c-0.103 0.276-0.031 0.156-0.161 0.321-0.426-1.176-1.712-1.807-2.408-2.729-1.512-2.003-3.313-3.631-4.816-5.617-0.91-0.858-1.819-1.713-2.729-2.569-1.11-1.469-2.398-2.879-3.692-4.174-0.534-0.48-1.07-0.963-1.605-1.445-4.7-6.221-11.187-10.955-15.892-17.176-0.91-0.855-1.819-1.712-2.729-2.568-1.109-1.469-2.397-2.878-3.692-4.174-0.958-0.958-2.433-1.968-2.889-3.371 0.583-0.549 1.083-1.322 1.605-1.927 1.064 0.433 1.9 2.005 2.568 2.891 1.901 2.519 4.331 4.668 6.261 7.224 0.907 1.2 2.305 2.17 3.21 3.369 4.197 5.567 9.285 10.328 13.484 15.894 0.906 1.2 2.304 2.172 3.212 3.372 1.928 2.556 4.361 4.702 6.26 7.223 0.658 0.873 1.391 2.234 2.247 2.89 0.558 0.426 1.476 0.673 2.087 0.963-1e-3 0.677-0.038 1.221-0.321 1.603z" clip-rule="evenodd" fill-rule="evenodd"/>
		<path d="m416.77 327.73c0.963-3.972-0.578-5.756-1.523-8.972l-0.168-3.048c-0.423-1.294-1.26-2.692-1.863-4.063-1.83-4.158-4.265-8.366-6.095-12.528-0.736-1.674-1.121-3.203-1.862-4.91-0.387-0.892-2.723-5.452-2.709-6.096 8e-3 -0.345 0.572-0.606 0.339-1.185-0.226-0.17-0.451-0.338-0.677-0.508-0.944-1.449-1.234-3.143-2.201-4.571-1.077-1.591-2.917-2.481-3.555-4.571-0.94-3.078-0.577-6.777-1.354-9.989-1.992-8.229-2.031-17.299-4.063-25.396-0.786-3.128-0.804-6.369-1.524-9.312-0.272-1.114 5e-3 -2.229-0.508-3.048v-0.17c0.863 0.291 1.408 1.104 2.201 1.354 0.918 0.291 1.181-0.412 1.523-0.508 0.571-0.158 1.735 0.399 2.202 0.508 0.481-0.542 0.826-1.177 1.185-1.862 0.506-0.079 1.02 0.017 1.354-0.168 0.82-0.375 1.174-1.545 1.524-2.371 0.431-0.04 0.805 0.076 1.185-0.169 0.769-0.391 0.906-1.309 1.354-2.032 0.861-1.388 1.653-2.63 2.032-4.571 0.155-0.795-0.19-2.502-0.339-3.217v-2.37c-0.59-2.729-0.777-6.727 0.169-8.974 1.017-0.412 2.736-0.369 4.233-0.338 0.423-3.6 0.481-6.797 1.185-9.989 0.556-2.519-0.766-5.915-0.339-7.957 0.314-1.502 0.688-3.541 0.847-5.079-0.168-1.242-0.338-2.483-0.508-3.725 0.115-0.94 0.303-2.458 0.508-3.386 0.057-1.749 0.113-3.499 0.169-5.249 0.286-1.191 1.142-3.151 0.847-4.571-1.052-5.052-1.708-10.298-2.878-15.406-0.057-1.524-0.113-3.048-0.169-4.571-0.419-1.682-0.66-3.558-1.185-5.418-0.631-2.234-1.295-4.678-2.201-6.772-0.421-0.973-1.217-2.174-1.524-3.216-0.113-1.186-0.225-2.371-0.338-3.556-1.716-7.11-0.905-15.831-4.402-20.994-2.225-3.285-5.739-6.181-9.143-8.295-1.118-0.695-2.271-0.995-3.385-1.693-1.801-1.128-3.285-2.942-5.08-4.063-2.28-1.424-6.375-2.784-7.957-4.741-0.517 0.168-0.629 0.364-1.185 0.508-1.004-1.424-2.541-2.413-3.048-4.402-0.321-1.259 1.036-4.263 1.354-5.249 0.79-2.444 1.241-5.057 1.862-7.45 0.057-1.297 0.113-2.596 0.169-3.894 0.446-1.28 1.394-2.317 1.016-4.232 0.113-0.113 0.226-0.226 0.338-0.339 0.783 0.017 1.02 0.073 1.354 0.508h0.508c-0.167-0.455-0.557-0.546-0.677-0.847-0.227-0.571 0.259-2.963 0.338-3.725 0.067-0.647-0.54-0.806-0.508-1.185 0.113-0.113 0.226-0.226 0.338-0.339-0.259-1.221-1.584-1.297-2.201-2.539-0.017-0.231-0.042-0.238 0.339-0.508-0.283-0.147-0.506 0.031-0.847-0.169-0.836-0.481-1.134-2.267-0.507-2.878-0.125-0.891-0.973-1.542-1.524-2.032-6e-3 -8e-3 -3.705 1.321-4.233 1.693-0.557-0.342-0.304-0.944-0.169-1.524-0.973-0.43-6.395-2.933-7.449-2.37 0 0-0.665-0.039-0.339-0.169l0.169-0.169c-1.001 0.152-1.927-0.603-2.878-0.508-0.265 0.026-1.064 0.473-1.185 0.508-0.767 0.226-2.032-0.521-2.709-0.677-0.99-0.229-2.135 0.287-2.878 0.169-1.487-0.236-3.531-0.084-5.08-0.508-0.608-0.167-1.643-0.681-2.201-0.846-1.08-0.32-0.312 0.564-1.354 0-0.518 0.934-0.118 1.54-0.508 2.201v0.338c-0.724-0.137-1.123-0.568-1.524-1.016h-0.339c0.288 0.487 0.495 0.749 1.016 1.016v0.508c-0.924-0.2-2.215 0.023-2.201 0.677-0.654-0.018-0.86-0.038-1.185-0.339h-0.509c0.504 0.645 1.232 0.497 1.863 1.016 0.137 0.113 0.67 1.207 1.016 1.524-0.124 1.632-1.015 2.317-1.185 3.555-0.108 0.787 0.347 1.031 0.508 1.524-0.057 0.508-0.112 1.016-0.169 1.523 0.777-0.142 1.182-0.63 1.523-1.185h0.169c-0.208 2.58-6.385 7.478-2.878 10.835-0.146 2.085-1.842 3.013-2.708 4.402-0.479 0.768-0.591 1.58-1.185 2.201-0.057 2.073 0.523 1.825 1.523 2.709 1.165-0.062 1.612-0.027 1.863 0.847 0.483 0.693 0.215 1.506 0.169 2.54 1.08 0.141 2.068 0.766 2.37 1.693h0.169c-0.241 0.426-1.285 0.941-1.693 1.185 0.061 1.153 0.718 1.796 1.354 2.37-0.237 1.088-1.441 2.473-0.508 3.725 1.002 2.03 5.12 0.973 7.45 1.693 1.23 0.38 3.388 1.552 4.063 2.54 0.591 0.865 0.503 2.134 1.185 2.878-0.23 0.976-0.672 0.711-1.354 1.186-0.632 0.439-0.935 1.404-1.524 1.862-0.711 0.554-1.603 0.702-2.37 1.185-2.188 1.378-3.768 3.412-5.756 4.91-1.893 1.426-4.301 2.927-5.079 5.418-0.339 2.54-0.677 5.079-1.016 7.619 0.149 1.112 0.592 3.396 0.338 4.572-0.84 3.888-0.453 8.916-1.354 13.036-0.4 1.829 0.018 3.79-0.338 5.417 0.056 4.571 0.112 9.143 0.169 13.714-0.391 1.773-0.18 3.804-0.169 5.587-0.056 0.564-0.113 1.129-0.169 1.693 0.077 0.505 0.372 1.772 0.169 2.54-0.532 2.009-0.81 3.855-0.508 6.095 0.3 2.23-1.343 4.484-0.847 6.772 0.56 2.581 0.339 5.014 0.339 7.957v3.217c-0.216 0.983 0.127 2.714-0.169 3.895-0.255 1.019-0.888 2.497-1.016 3.217v4.401c-0.277 1.17-0.776 3.002-0.676 4.063 0.158 1.69-0.661 3.529-1.016 4.74-0.113 1.354-0.226 2.709-0.338 4.063-1.081 3.401-3.345 6.386-4.911 9.481-0.499 0.985-0.012 2.373-0.338 3.725-0.166 0.688-0.517 1.681-0.677 2.37-0.109 0.473 0.024 1.128 0.17 1.354 0.198 1.416 1.863 1.856 2.539 2.878 0.339 1.017 0.677 2.032 1.016 3.048 0.752 1.826 1.619 3.931 2.37 5.757 2.018 4.899 3.502 9.586 5.587 14.392 0.609 1.402 1.186 3.367 2.031 4.739 0.276 0.448 0.82 0.798 1.016 1.354 0.602 1.713 0.06 3.686 0.508 5.587 0.809 3.437 1.397 6.739 2.201 10.158v2.202c0 4.973-2.645 6.258-4.571 9.142-0.884 1.323-1.175 2.717-1.693 4.402-0.293 0.953-0.888 2.719-0.508 4.232 0.749 2.981 2.105 5.568 3.216 8.127 1.006 2.315 1.691 4.454 2.709 6.771 0.625 1.425 1.888 2.931 2.371 4.402 0.056 4.741 0.113 9.481 0.169 14.222 5e-3 2.185 0.426 4.088 0.847 5.926 0.536 2.345 0.013 5.062 0.508 7.28 0.113 2.709 0.225 5.418 0.338 8.126 0.587 1.803 2.166 3.215 3.217 4.572 0.712 0 1.146-0.036 1.524-0.339 0.39 0.055 0.42 0.078 0.677 0.169-0.061 0.552-0.568 1.803-0.847 2.2-0.273 0.177-1.079 0.17-1.354 0.339-0.897 0.763-0.986 2.537-2.201 3.218-0.564 0.113-1.129 0.226-1.693 0.339-0.836 0.427-1.46 1.483-2.201 2.031-1.272 0.94-2.729 1.454-4.063 2.371-0.476 0.326-0.802 0.86-1.354 1.185-0.104 1.292-0.434 2.272-0.339 3.386 0.933 0.327 2.129 0.21 3.217 0.508 3.997 1.092 10.786 1.867 15.576 0.678 1.429-0.355 2.83-1.312 4.063-1.693 1.298 0.057 2.596 0.113 3.894 0.17-0.019 0.624-0.074 1.497 0.169 1.861v0.339c9.479 2.045 20.243-2.637 23.872-8.126 1.12-1.693 1.546-3.87 2.37-5.757 0.745-1.703 2.217-3.186 2.709-5.08 3.376 0.274 7.99 0.818 10.666 2.032 0.287 0.8 0.368 1.908 0.847 2.539 0.443 0.66 1.075 0.711 1.692 1.186 2.41 0.014 3.406-1.451 4.064-3.216 0.79 0.113 1.58 0.226 2.371 0.337 2.821-0.773 3.829-4.035 5.079-6.433 0.163-0.312 0.754-0.902 0.847-1.185-0.057-0.565-0.112-1.129-0.169-1.693 1.311-4.123 5.065-6.801 2.539-12.698 3.539-2.101 0.228-3.538 0.845-6.095zm-84.482-79.065c-1.542-3.74-3.176-7.744-4.741-11.512-0.647-1.56-0.838-3.538-1.862-4.741v-0.339c0.601 0.284 1.395 0.577 1.862 1.017 1.066-0.057 3.897-1.211 4.402-1.862 0.918 1.383 0.249 4.983 0.677 6.941 0.539 2.464 0.094 5.282 0.677 7.957 0.501 2.3 0.692 5.301 0.677 7.789-1.031-1.291-1.029-3.641-1.692-5.25zm62.474 29.291c-1.184-0.604-2.434-1.324-3.894-1.693-0.966-0.244-2.45-1e-3 -3.217-0.169-1.242-0.271-3.325 0.114-4.402 0.339h-4.91c-0.376 0-1.447 0.192-1.523 0.169-0.282-0.339-0.564-0.678-0.847-1.017-0.811-0.459-4.559-0.858-5.079-0.338-0.348-0.067-0.327-0.042-0.509-0.169-0.417-0.54-0.216-1.488-0.507-2.202-0.39-0.952-1.182-1.73-1.693-2.539-0.057-0.057-0.113-0.113-0.169-0.17 0.395-0.282 0.79-0.563 1.185-0.846 0.024-1.596 0.392-4.018 0-4.741 0.152-1.775 1.787-2.183 2.539-3.385 1.795-2.872 2.803-6.316 4.741-8.974 1.594 0.019 7.176 0.431 8.126-0.17h6.434c-0.146 0.111-0.531 0.229-0.677 0.339-0.105 0.174 0.783 4.965 1.015 5.926 1.096 4.513 1.083 9.765 2.202 14.053 0.464 1.783 0.269 3.907 1.185 5.248v0.339z" clip-rule="evenodd" fill-rule="evenodd"/>
		<path d="m800.06 180.75c-1.475-1.354-3.128-3.129-4.787-4.213 0.192-1.506 1.13-2.606 1.531-4.021 0.75-2.634 0.637-5.462 1.15-8.425-0.521-0.55-0.691-1.285-1.15-1.916-1.774-2.444-5.058-4.522-7.659-6.127-2.605-1.608-6.072-1.946-8.809-3.447-1.699-0.932-3.125-2.794-4.788-3.829-1.468-0.638-2.937-1.276-4.404-1.915-0.509-0.511-1.021-1.021-1.531-1.532h-1.34c-0.675-0.32-1.481-1.466-2.106-1.915-2.278-1.632-5.293-2.263-7.47-4.022-1.182-0.955-0.975-3.42-2.104-4.404-0.816-0.71-1.935-0.948-2.874-1.532-1.774-1.105-3.775-2.608-5.744-3.447-1.329-0.567-2.939-0.54-4.021-1.34-0.589-0.304-0.421-0.652-0.765-1.149-1.149-0.751-3.265-0.227-4.788-0.575-4.327-0.988-9.405-1.107-14.171-1.149v-1.34c-0.434-0.439-0.651-1.163-1.148-1.532-0.421-0.311-1.043-0.352-1.342-0.766-1.067-1.486-1.331-3.418-2.296-4.978-0.586-0.945-1.487-1.941-2.107-2.873-0.312-0.471-0.38-1.133-0.766-1.532-2.678-2.776-6.118-4.477-7.66-8.426-1.603-6e-3 -3.673-0.273-4.979 0.192-0.895 0.318-1.852 1.233-2.872 1.532-1.328 0.388-2.83-0.217-3.83 0.19-1.263 0.516-5.312 4.928-6.128 6.128-1.188 1.75-1.652 4.037-3.063 5.553 0.228 1.394 0.445 1.951 0.383 3.639-0.521 0.509-0.763 1.269-1.341 1.724-0.266 0.225-2.628-1.013-3.255-1.341-3.062-1.6-6.078-3.485-9-5.17-1.735-1-3.616-1.448-5.553-2.298-3.111-1.365-6.552-2.912-9.959-4.021-3.935-1.282-8.267-1.046-11.872-2.681-2.508-1.138-4.391-3.525-6.702-4.979-2.302-1.446-5.285-3.771-7.851-4.595-1.061-0.341-1.947 0.308-2.49 0.574-0.196 0.716-0.476 1.077-0.574 1.915-1.204-0.052-3.005-0.372-3.83-0.957-3.323-0.105-2.795 0.817-4.022 2.681-0.615 0.5-1.055 0.323-1.53-0.192-1.465 0.226-1.9 1.072-2.872 1.724 5e-3 0.522 8e-3 0.877 0.19 1.149 0.438 1.16 1.339 0.737 2.3 1.34 0.573 0.574 1.148 1.149 1.723 1.724-0.021 0.545-0.078 0.818-0.191 1.148-0.19 0.064-0.383 0.127-0.575 0.191-0.54-0.578-1.324-0.81-1.916-1.34-0.969 0.155-1.089 0.536-1.722 0.957-0.713 3 1.106 6.737 3.638 7.468 1.808 0.523 3.643 6e-3 5.361 0.575 1.181 0.39 2.098 1.542 3.447 1.915 2.626 0.727 8.498-0.728 9.767-1.915 1.579 0.135 2.534 1.351 3.83 1.915 3.128 1.361 6.18 2.72 9.19 4.021 4.683 2.023 9.394 3.862 13.979 5.745 1.404 0.382 2.811 0.766 4.214 1.148 2.095 1.188 2.674 4.484 4.597 5.936 5.71 4.311 10.468 9.969 14.744 15.703 0.782 1.049 2.2 1.533 3.064 2.489 0.191 0.574 0.382 1.149 0.572 1.724 0.508 1.148 1.413 2.488 1.916 3.638 0.523 1.192 0.683 2.353 1.341 3.446 1.504 2.5 2.766 5.38 4.405 7.852 1.444 2.18 3.6 4.399 4.786 6.702 0.48 0.931 0.354 1.903 0.767 2.872 0.46 1.083 1.355 2.198 1.723 3.447 0.405 1.374 0.077 2.634 0.767 3.638 0.656 0.957 2.205 1.318 2.872 2.298 0.935 1.374 1 2.628 2.489 3.447-0.119 1.579-0.859 2.152-1.34 3.255-0.715 1.641-1.181 3.685-1.149 5.937-2.977 0.185-5.855 1.851-8.617 2.298-1.576 0.256-1.766-1.318-3.447-0.766-0.352 0.116-3.069 1.277-3.446 1.532-0.681 0.459-0.7 1.741-1.532 2.105-1.085 0.256-2.17 0.511-3.254 0.767-1.366 0.703-2.391 2.23-3.64 3.064-2.573 1.716-5.24 2.946-7.851 4.595-3.314 2.095-6.628 4.595-9.767 6.895-3.657 2.679-10.186 7.175-11.49 11.872-0.396 1.426 0.605 2.359 0.384 3.446-0.149 0.738-0.777 1.603-0.957 2.298-0.463 1.783 1.021 2.966 1.341 4.213v2.299c0.756 3.269 0.728 6.668 1.722 9.766 1.001 3.114 1.859 6.043 3.064 9.192 0.887 2.315 2.66 4.537 3.446 6.893l0.193 3.064c0.826 3.625 0.729 7.82 2.488 10.532 1.306 2.012 3.748 3.691 5.938 4.788 0.7 0.191 1.403 0.384 2.105 0.573 1.197 0.793 1.521 2.778 2.488 3.83-0.179 2.154-1.545 2.115-2.297 3.446-0.336 0.596-0.197 1.241-0.575 1.724-0.148 3.279 1.305 3.992 4.021 4.213-0.266 1.21-1.312 1.263-2.105 1.914-0.39 0.319-0.238 0.969-0.575 1.341-0.373 0.415-1.055 0.434-1.531 0.768-0.64 0.7-1.276 1.403-1.915 2.104h-1.724c-0.682 0.263-0.721 1.203-1.148 1.724 1e-3 0.915 0.106 1.213 0.384 1.725 1.278-0.139 1.357-0.752 2.488-0.957-0.044 0.443-0.037 0.538-0.192 0.765 9e-3 2.522-0.961 2.985-1.915 4.406-10.108-0.79-13.785 8.164-15.893 16.275-1.264 4.862-0.616 11.425 1.532 15.128 2.09 3.606 5.317 5.069 8.808 7.276 4.721 2.985 9.878 5.854 14.745 8.809 1.405 0.574 2.81 1.15 4.213 1.724 2.641 0.034 2.272-2.281 2.872-4.214 0.894-3 1.787-5.998 2.682-8.999 0.708-0.052 0.576 0.017 1.341 0.192 0.103-0.298 0.213-1.086 0.382-1.34 0.191-0.192 0.383-0.384 0.574-0.576 1.857-0.027 2.257 0.305 3.256 0.956 0.202 2.791 0.142 6.985-1.148 8.811v0.384c-0.485-0.021-0.71-0.023-0.958-0.192-3.504-0.108-1.966 1.796-3.256 3.639 0.774 1.112 2.163 0.931 3.256 1.723 0.208 0.299 0.317 1.133 0.383 1.531 1.623-0.086 0.919-0.422 1.532-0.766 1.295-0.726 2.611 0.583 3.638-0.19 0.463-0.389 0.582-1.062 0.958-1.531-0.106-2.286-1.553-1.696-2.298-3.064-0.19-0.453 0.834-4.858 1.148-5.937 1.074-3.682 1.852-7.849 2.872-11.49 0.448-1.592 0.633-5.134 1.341-6.318 0 0 3.655-1.131 4.021-1.341 0.06-1.173 0.455-2.353-0.191-3.063-0.367-0.864-1.452-0.788-2.105-1.342-0.161-0.293-0.031-0.656 0-1.341l-0.191-0.191c-0.589 0.016-5.66 0.896-5.745 0.96-2.349 1.624-0.401 4.403 1.724 4.786-0.257 1.326-0.617 4.098-1.34 5.17-0.645 0.952-1.562 1.308-1.916 2.681-1.35-0.019-2.288-0.253-3.446-0.382-0.063-0.32-0.128-0.639-0.191-0.958h-0.575c0.775-3.568 2.67-9.752 2.49-13.021-1.312-0.688-1.987-1.708-3.447-2.298 3e-3 -1.16 0.191-1.453 0.575-2.106 1.379 0.059 2.106 0.502 3.254 0.765 2.363 0.541 4.434-0.516 5.745-1.148 0.612-1.582 1.546-10.262 0.384-12.064-0.02-2.156-1.109-2.665-1.916-4.021h-1.53c-0.253-1.727-0.774-4.154-1.342-5.937 3.564-2.02 6.69-2.95 6.704-8.617-1.842-1.798-2.509-4.552-4.788-5.935 0.3-1.077 0.727-2.15 0.956-3.448-2.233-2.591-5.038-5.518-8.233-7.085-0.396-1.927-0.719-3.927-1.149-5.554-0.128-1.213-0.256-2.426-0.384-3.638-0.77-2.646-2.136-5.586-2.871-8.234v-5.938c-0.22-0.688-0.896-1.939-1.148-2.68v-1.148c-0.319-0.192-0.639-0.384-0.958-0.575-0.521-0.74-0.495-2.709 0-3.446 0.021-0.485 0.024-0.71 0.191-0.956 1.379-0.888 6.572-0.839 8.618-1.342 5.327-1.309 11.797-1.286 17.042-2.49 2.616 0.063 5.234 0.128 7.853 0.191 1.426-0.336 2.698-1.165 3.829-1.531 1.587-0.513 4.075 0.572 5.361-0.19h1.532c0.428 1.849 1.175 3.518 1.724 5.17 0.776 2.337 1.066 4.404 1.914 6.701 0.407 1.104 1.732 4.729 1.341 6.319-0.397 1.615-2.324 3.557-3.446 4.597 0.082 2.685 1.09 5.121 2.681 6.319 1.506 1.133 3.074 1.53 3.638 3.638 0.215 0.458-0.672 2.208-1.148 2.681 0.147 2 1.789 2.544 2.297 4.021v10.723c0.255 1.149 0.511 2.299 0.767 3.448-0.146 0.896-1.036 2.137-1.34 3.064-0.905 2.755-1.559 5.595-2.299 8.233-0.255 1.786-0.51 3.574-0.765 5.362-1.322 5.182-1.793 11.032-3.064 16.276-0.675 2.783-0.096 5.682-0.766 8.616-0.786 3.439-1.323 8.567 0.957 10.915-0.191 1.18-1.188 2.689-1.915 3.446 0.043 1.12 0.367 2.781 0.958 3.448-0.185 0.891-0.829 1.337-0.767 1.914 0.125 1.405 1.246 1.681 2.298 2.107 0.099 0.479 0.509 3.997 0.191 4.977-0.18 0.555-0.946 1.238-1.149 1.725-0.601 1.442 0.45 2.604 0 4.214-0.343 1.231-0.966 2.48-0.766 4.021 0.211 1.616-1.394 2.664-0.191 4.214 0.063 0.128 0.128 0.254 0.191 0.382 5.594 0.483 10.789 0.898 15.512 2.106 1.201 0.308 4.563 0.952 5.744 0.191 0.638-1e-3 1.139-0.055 1.531-0.191 1.034-4.581-0.601-5.467-2.489-8.618-0.463-0.771-0.422-1.979-0.957-2.681 0.019-1.547 0.498-1.326 1.149-2.105 0.192-0.469-0.336-1.117 0-1.723 0.178-0.094 4.818-1.109 5.553-1.15-0.107-0.606-0.168-0.556-0.384-0.956-1.135 0.042-1.467 0.308-2.488 0.382 0.179-0.905 0.739-1.177 0.956-1.914 0.542-1.835-0.233-3.436 0-4.788 0.681-3.931 0.677-8.75 1.532-12.446v-6.318c0.795-3.164 2.012-6.334 2.872-9.384 0.596-2.104 0.412-4.104 1.149-6.128 0.457-1.256 1.18-2.51 1.533-4.021v-4.404c1.258-5.689-0.212-12.57 3.063-16.085-7e-3 -3.465-1.785-4.391-3.445-6.129-0.217-0.252 0.725-2.205 0.382-3.445-0.072-0.257-0.503-0.895-0.574-1.148-0.128-1.087-0.256-2.171-0.385-3.257-0.481-0.903-1.673-1.16-2.296-1.915-0.155-0.198-0.072-0.046-0.191-0.382 1.145-1.179 2.527-3.742 2.872-5.554 0.231-1.225-1.247-2.021-0.768-3.447 0.179-0.523 0.926-1.022 1.149-1.532 0.128-0.766 0.256-1.532 0.384-2.297 0.31-0.955 1.145-1.791 1.531-2.681 1.012-2.328 1.852-4.84 2.681-7.086 0.448-1.979 0.895-3.957 1.341-5.937 0.414-1.068 1.524-2.008 1.916-3.064-0.538-2.293 0.885-3.971 1.531-5.744 0.127-0.702 0.255-1.403 0.383-2.105 0.736-1.866 5.039-4.252 4.212-7.278-0.118-0.438-0.648-1.326-0.765-1.723-0.455-1.55 0.623-2.714 0.957-3.639 0.383-2.042 0.767-4.085 1.147-6.127 0.382-1.124 1.782-3.329 1.341-4.979-0.25-0.94-1.05-1.607-1.341-2.489-0.464-1.415 0.071-3.554-0.191-4.596-0.201-0.806-1.108-1.825-1.34-2.489v-2.298c-0.219-0.839-0.366-2.255-0.765-3.256-0.125-0.309-0.644-0.648-0.767-0.957-1.337-3.351-1.718-6.724-2.872-10.149-2.025-6.01-4.188-12.035-5.745-18.383 0.064-3.191 0.128-6.384 0.192-9.575 2.597 0.182 5.206 1.61 7.659 2.298 1.781 0.5 3.886 0.358 5.169 1.341 0.808 0.479 0.412 1.354 0.768 2.298 0.644 1.709 1.231 2.122 0.765 4.212-0.234 1.057 0.074 1.769-0.382 2.49-0.584 0.922-1.872 1.854-2.299 2.872-0.347 0.828 0.048 1.831-0.384 2.49-0.441 0.93-1.348 0.406-1.722 1.531-0.435 0.943 1.036 1.987 1.532 2.681 2.659-0.02 2.37-1.052 3.829-1.723 0.451-0.208 1.026 0.013 1.34-0.191 2.916 0.348 2.138 5.836 3.064 8.426 0.383 0.51 0.767 1.021 1.149 1.532 0.972-0.104 0.94-0.373 1.531-0.768 0.378 1.046 0.663 1.703 1.149 2.49 2.427-0.092 2.708-2.189 2.488-4.787-0.063-0.384-0.127-0.767-0.19-1.148 0.378-1.295 1.925-1.763 2.681-2.682 1.699-2.075 2.798-4.924 2.485-8.43zm-44.043 185.17c-0.394 0.076-0.369 0.048-0.574 0.192h-2.107c0.128-0.704 0.255-1.404 0.383-2.107 1.165 0.162 1.534 0.657 2.299 1.147v0.768z" clip-rule="evenodd" fill-rule="evenodd"/>
<path d="m557.25 79.565c0.393 4.53-1.638 6.256-2.185 9.75 0.885 0.292 2.895 2.401 3.36 3.193h-0.336c-0.28-0.29-0.625-0.481-1.008-0.672v0.168c0.584 0.439 0.916 1.272 1.513 1.681 0.562 0.386 0.953 0.292 1.344 0.84-0.401 0.07-1.188 0.271-1.513 0.504 0.452 0.15 0.436 0.173 0.673 0.505-0.655-5e-3 -0.756-0.084-1.009 0.336 0.393 0.392 0.785 0.784 1.178 1.176h-0.337c-0.386-0.441-1.292-0.595-1.849-0.841v0.168c0.805 0.748 2.495 1.886 3.025 2.69h-0.673c-0.404-0.366-1.174-0.604-1.68-0.841v2.017c0.353 0.513 0.545 1.369 0.84 1.849-0.225 0.056-0.45 0.112-0.672 0.168 0.171 0.135 0.045 0.06 0.336 0.168 0.319 0.427 0.834 0.454 1.176 0.84h0.168l-0.168 0.168c-1.07 0.875-2.887-0.266-3.866-0.672v0.336h0.168c0.93 2.772 5.426 3.094 8.236 4.034 3.174 1.062 6.309 3.626 7.733 6.388 0.664 1.286 0.711 2.591 1.177 4.035 2.123 6.58 2.186 15.037 2.186 24.038 1e-3 9.652 0.225 20.082-1.849 27.904-0.449 1.694-0.259 3.237-0.842 4.876-1.332 3.749-4.079 7.047-6.219 10.085-1.758 2.495-3.331 5.393-5.884 7.061 0.678 1.945 1.589 7.375 1.177 9.581-0.677 0.265-0.812 0.212-0.84 1.176 0.946 1.37 0.859 6.935 0.336 8.91-0.174 0.657-0.89 1.448-0.673 2.354 0.646 2.681-0.978 5.806-1.681 8.069-0.521 1.676 0.095 3.918-0.336 5.547-0.402 1.514-1.442 2.775-1.85 4.202-0.057 0.896-0.111 1.793-0.167 2.689-0.6 2.591-0.586 5.791-1.177 8.405-0.112 1.456-0.225 2.913-0.337 4.369-1.116 4.833-0.737 10.429-1.85 15.466-0.417 1.891-0.127 3.852-0.503 5.547-0.224 2.856-0.448 5.717-0.674 8.572-1.409 5.583-2.811 11.42-4.37 16.644-0.764 2.556-0.776 5.439-1.346 7.898-0.393 4.538-0.783 9.081-1.176 13.617v2.688c-0.616 3.531-1.232 7.062-1.849 10.592-0.169 1.735-0.336 3.473-0.505 5.212-1.009 4.256-1.075 8.745-2.185 13.112-1.176 4.614-2.326 9.883-2.522 15.128h-2.354c-6e-3 2.456 0.231 4.719 0.673 6.723-0.111 1.961-0.225 3.922-0.337 5.883-1.16 0.699-3.48 0.507-5.379 0.507h-11.599c-2.869-4.954 2.089-9.114 1.176-14.29-1.362-0.064-2.569-0.412-3.696-0.671 5e-3 -0.658 0.083-0.758-0.337-1.01-0.604-0.391-1.646-0.198-2.018-0.84-0.825-1.323-0.252-4.927-0.672-6.725-0.367-1.572-1.331-4.342-1.01-6.219 0.559-3.252 1.355-6.314 1.514-9.75-1.438 0.05-1.989 0.591-3.361 0.334-1.327-3.058-1.828-7.321-2.689-10.757-0.056-2.746-0.112-5.49-0.169-8.236-0.669-2.768-2.27-4.744-3.024-7.229-0.334-1.095-0.134-3.68 0.167-4.538 0.199-0.569 0.991-1.561 0.841-2.354-0.179-0.93-1.062-1.899-1.346-2.857-0.495-1.681-0.642-3.345-1.008-4.874v-2.185c-0.241-0.976-1.229-2.464-1.008-3.529 0.235-1.15 1.035-1.51 1.176-2.691-0.321-0.402-0.958-1.456-0.842-2.185 0.04-0.245 0.655-0.946 0.337-1.514h-0.337c-0.244-0.306-0.697-1.205-0.503-1.849 0.208-0.691 1.315-1.092 1.009-2.354-0.257-1.057-1.48-2.153-1.682-2.858 0.057-0.671 0.111-1.345 0.168-2.016-0.732-2.978-0.979-6.994-1.681-10.088-0.057-2.634-0.112-5.266-0.168-7.898-1.343-4.146-3.166-9.01-4.369-13.281-0.17-1.456-0.338-2.912-0.505-4.371-0.647-2.682-0.933-5.855-1.514-8.572-0.858 6e-3 -1.233-0.647-2.018-1.009-0.952-0.169-1.904-0.337-2.856-0.504-1.121-0.379-2.449-1.068-3.531-1.514-1.004-0.412-2.247-0.379-3.025-1.009-0.541-0.852-0.186-5.632-0.168-7.059 0.492-0.812-0.066-2.442 0.168-3.531 0.459-2.124 5e-3 -4.582 0.506-6.892 0.422-1.955 0.135-4.242 0.335-6.557 0.058-0.391 0.112-0.783 0.167-1.176-0.242-1.314-0.721-3.561-0.335-5.211 0.802-3.434 1.009-7.659 1.009-12.104 0-1.264 0.129-3.119 0-3.865v-3.194c-0.324-1.222-1.314-2.203-1.682-3.194-1.268-3.421 0.998-7.829 4.37-7.899 0.22 0.378 1.174 1.692 1.514 1.343 0.526-0.913-4e-3 -2.583-0.169-3.699-0.206-1.41 0.587-1.765 0.842-2.521-0.057-0.504-0.113-1.008-0.168-1.512 0.366-1.729 1.365-3.855 1.848-5.716 0.516-1.981 0.328-3.719 0.841-5.715 1.712-6.64 2.073-14.275 3.867-20.676 0.505-3.25 1.008-6.5 1.511-9.75 1.274-4.237 3.506-8.176 5.886-11.431 2.023-2.768 6.519-4.181 11.094-3.866 0.541-1.766 1.467-2.927 1.513-5.379h-0.336c-0.516 0.78-1.579 2.194-2.521 2.521v-0.336c1.667-1.272 2.8-3.509 2.857-6.388h-0.336c-0.654 1.073-1.395 2.388-2.187 3.362-0.294-0.105-0.162-0.032-0.335-0.168-0.879-0.976 0.851-5.254 1.176-6.388h-0.168c-0.86 1.083-2.409 1.672-3.362 2.69-0.293-0.106-0.163-0.033-0.334-0.169-0.297-0.105-0.165-0.032-0.337-0.168h0.168c1.792-1.793 3.586-3.586 5.379-5.378 0.812-0.614 2.144-1.356 2.521-2.354h-0.338c-0.884-0.558-2.049 0.399-2.688 0.672-1.687 0.721-4.409 2.239-6.05 2.522-0.217-0.349-0.352-0.387-0.506-0.84 1.514-0.97 2.769-2.402 4.37-3.362 0.829-0.497 1.901-0.487 2.858-0.84 1.456-0.539 2.99-1.266 4.538-1.681 0.503-2.107 2.22-3.688 3.025-5.548 0.475-1.09 0.929-3.72 1.682-4.371 0.638-0.55 1.752-0.14 2.354-1.008 0.71-1.024 0.858-2.299 1.513-3.362 2.229-3.609 5.238-7.944 9.246-9.75 10.615-4.782 17.942 2.647 21.685 9.918 0.909 1.768 3.394 7.752 1.85 10.59 0.838 1.431 0.558 1.35 0.168 3.025-0.337 0.281-0.674 0.561-1.01 0.841-0.781 0.062-1.566 0.118-2.349 0.174z" clip-rule="evenodd" fill-rule="evenodd"/>
</svg>
